HIERARCHY
ROOT Hips
{
	OFFSET 0.000000 83.214638 0.000000
	CHANNELS 6 Xposition Yposition Zposition Xrotation Yrotation Zrotation
	JOINT Pelvis
	{
		OFFSET 0.000000 0.000000 0.000000
		CHANNELS 3 Xrotation Yrotation Zrotation
		JOINT LeftUpLeg
		{
			OFFSET 8.479700 -4.795502 -0.379100
			CHANNELS 3 Xrotation Yrotation Zrotation
			JOINT LeftLeg
			{
				OFFSET 0.024144 -32.555107 0.112900
				CHANNELS 3 Xrotation Yrotation Zrotation
				JOINT LeftFoot
				{
					OFFSET -0.024144 -32.638630 -3.012600
					CHANNELS 3 Xrotation Yrotation Zrotation
					JOINT LeftToeBase
					{
						OFFSET 0.970200 -13.225400 11.864200
						CHANNELS 3 Xrotation Yrotation Zrotation
						End Site
						{
							OFFSET 0.000000 12.319262 0.000000
						}
					}
					JOINT LFootTongue
					{
						OFFSET 1.142400 -1.059800 6.665200
						CHANNELS 3 Xrotation Yrotation Zrotation
						End Site
						{
							OFFSET 0.000000 12.319262 0.000000
						}
					}
				}
				JOINT LeftPantLeg
				{
					OFFSET 0.918482 -16.533964 -2.284700
					CHANNELS 3 Xrotation Yrotation Zrotation
					End Site
					{
						OFFSET 0.350399 24.744368 0.000000
					}
				}
			}
		}
		JOINT RightUpLeg
		{
			OFFSET -8.479700 -4.795502 -0.379100
			CHANNELS 3 Xrotation Yrotation Zrotation
			JOINT RightLeg
			{
				OFFSET -0.023144 -32.555092 0.112900
				CHANNELS 3 Xrotation Yrotation Zrotation
				JOINT RightFoot
				{
					OFFSET 0.023144 -32.638641 -3.012700
					CHANNELS 3 Xrotation Yrotation Zrotation
					JOINT RightToeBase
					{
						OFFSET -0.970200 -13.225400 11.864200
						CHANNELS 3 Xrotation Yrotation Zrotation
						End Site
						{
							OFFSET 0.000000 12.319244 0.000000
						}
					}
					JOINT RFootTongue
					{
						OFFSET -1.142200 -1.059800 6.665200
						CHANNELS 3 Xrotation Yrotation Zrotation
						End Site
						{
							OFFSET 0.000000 12.319243 0.000000
						}
					}
				}
				JOINT RightPantLeg
				{
					OFFSET -0.919482 -16.533978 -2.284800
					CHANNELS 3 Xrotation Yrotation Zrotation
					End Site
					{
						OFFSET -0.350400 24.744419 0.000000
					}
				}
			}
		}
	}
	JOINT Spine
	{
		OFFSET 0.000000 7.722000 1.166200
		CHANNELS 3 Xrotation Yrotation Zrotation
		JOINT Spine1
		{
			OFFSET 0.000000 12.024101 0.248800
			CHANNELS 3 Xrotation Yrotation Zrotation
			JOINT Spine2
			{
				OFFSET 0.000000 11.502998 -0.491200
				CHANNELS 3 Xrotation Yrotation Zrotation
				JOINT Neck
				{
					OFFSET 0.000000 18.430702 -3.123100
					CHANNELS 3 Xrotation Yrotation Zrotation
					JOINT Head
					{
						OFFSET 0.000000 9.051102 1.034000
						CHANNELS 3 Xrotation Yrotation Zrotation
						JOINT HairB
						{
							OFFSET 0.208400 24.786102 24.822300
							CHANNELS 3 Xrotation Yrotation Zrotation
							End Site
							{
								OFFSET 0.000000 32.263779 0.000000
							}
						}
						JOINT HairA
						{
							OFFSET -7.081100 24.428299 23.196600
							CHANNELS 3 Xrotation Yrotation Zrotation
							End Site
							{
								OFFSET 0.000000 32.263779 0.000000
							}
						}
						JOINT Hat
						{
							OFFSET 16.728800 15.048294 -15.439601
							CHANNELS 3 Xrotation Yrotation Zrotation
							End Site
							{
								OFFSET 0.000000 32.263779 0.000000
							}
						}
					}
				}
				JOINT LeftShoulder
				{
					OFFSET 6.197800 13.665199 -4.064700
					CHANNELS 3 Xrotation Yrotation Zrotation
					JOINT LeftArm
					{
						OFFSET 7.778100 -0.187103 -1.709300
						CHANNELS 3 Xrotation Yrotation Zrotation
						JOINT LeftForeArm
						{
							OFFSET 22.049376 0.000000 0.000000
							CHANNELS 3 Xrotation Yrotation Zrotation
							JOINT LeftHand
							{
								OFFSET 23.009392 0.000000 0.000000
								CHANNELS 3 Xrotation Yrotation Zrotation
								JOINT LeftHandThumb1
								{
									OFFSET 3.507191 -2.063065 3.133727
									CHANNELS 3 Xrotation Yrotation Zrotation
									JOINT LeftHandThumb2
									{
										OFFSET 3.101337 -1.790558 1.790558
										CHANNELS 3 Xrotation Yrotation Zrotation
										JOINT LeftHandThumb3
										{
											OFFSET 3.058640 -1.765907 1.765906
											CHANNELS 3 Xrotation Yrotation Zrotation
											End Site
											{
												OFFSET -0.415260 3.926476 -0.049563
											}
										}
									}
								}
								JOINT LeftHandIndex1
								{
									OFFSET 11.334419 -0.901459 3.706815
									CHANNELS 3 Xrotation Yrotation Zrotation
									JOINT LeftHandIndex2
									{
										OFFSET 3.283112 0.000000 0.000000
										CHANNELS 3 Xrotation Yrotation Zrotation
										JOINT LeftHandIndex3
										{
											OFFSET 3.323853 0.000000 0.000000
											CHANNELS 3 Xrotation Yrotation Zrotation
											End Site
											{
												OFFSET -1.135597 3.097809 0.402452
											}
										}
									}
								}
								JOINT LeftHandMiddle1
								{
									OFFSET 11.335861 0.000000 0.000000
									CHANNELS 3 Xrotation Yrotation Zrotation
									JOINT LeftHandMiddle2
									{
										OFFSET 3.410492 0.000000 0.000000
										CHANNELS 3 Xrotation Yrotation Zrotation
										JOINT LeftHandMiddle3
										{
											OFFSET 3.312172 0.000000 0.000000
											CHANNELS 3 Xrotation Yrotation Zrotation
											End Site
											{
												OFFSET -1.150200 3.080154 0.400270
											}
										}
									}
								}
								JOINT LeftHandRing1
								{
									OFFSET 11.514786 -0.013176 -3.003090
									CHANNELS 3 Xrotation Yrotation Zrotation
									JOINT LeftHandRing2
									{
										OFFSET 3.053307 0.000000 0.000000
										CHANNELS 3 Xrotation Yrotation Zrotation
										JOINT LeftHandRing3
										{
											OFFSET 3.295807 0.000000 0.000000
											CHANNELS 3 Xrotation Yrotation Zrotation
											End Site
											{
												OFFSET -1.281006 3.013344 0.375733
											}
										}
									}
								}
								JOINT LeftHandPinky1
								{
									OFFSET 10.518692 -0.960396 -5.730441
									CHANNELS 3 Xrotation Yrotation Zrotation
									JOINT LeftHandPinky2
									{
										OFFSET 2.861649 0.000000 0.000000
										CHANNELS 3 Xrotation Yrotation Zrotation
										JOINT LeftHandPinky3
										{
											OFFSET 2.863380 0.000000 0.000000
											CHANNELS 3 Xrotation Yrotation Zrotation
											End Site
											{
												OFFSET -0.843597 2.711159 0.369971
											}
										}
									}
								}
							}
							JOINT LSleeve
							{
								OFFSET 6.676277 -0.344902 -1.011730
								CHANNELS 3 Xrotation Yrotation Zrotation
								End Site
								{
									OFFSET 0.000000 14.885353 0.000000
								}
							}
						}
					}
				}
				JOINT RightShoulder
				{
					OFFSET -6.197800 13.665199 -4.064700
					CHANNELS 3 Xrotation Yrotation Zrotation
					JOINT RightArm
					{
						OFFSET -7.778100 -0.187103 -1.709300
						CHANNELS 3 Xrotation Yrotation Zrotation
						JOINT RightForeArm
						{
							OFFSET -22.049376 0.000000 0.000000
							CHANNELS 3 Xrotation Yrotation Zrotation
							JOINT RightHand
							{
								OFFSET -23.009392 0.000000 0.000000
								CHANNELS 3 Xrotation Yrotation Zrotation
								JOINT RightHandThumb1
								{
									OFFSET -3.507191 -2.063065 3.133727
									CHANNELS 3 Xrotation Yrotation Zrotation
									JOINT RightHandThumb2
									{
										OFFSET -3.101337 -1.790558 1.790558
										CHANNELS 3 Xrotation Yrotation Zrotation
										JOINT RightHandThumb3
										{
											OFFSET -3.058640 -1.765907 1.765906
											CHANNELS 3 Xrotation Yrotation Zrotation
											End Site
											{
												OFFSET 0.415260 3.926476 -0.049563
											}
										}
									}
								}
								JOINT RightHandIndex1
								{
									OFFSET -11.334419 -0.901459 3.706815
									CHANNELS 3 Xrotation Yrotation Zrotation
									JOINT RightHandIndex2
									{
										OFFSET -3.283112 0.000000 0.000000
										CHANNELS 3 Xrotation Yrotation Zrotation
										JOINT RightHandIndex3
										{
											OFFSET -3.323853 0.000000 0.000000
											CHANNELS 3 Xrotation Yrotation Zrotation
											End Site
											{
												OFFSET 1.135597 3.097809 0.402452
											}
										}
									}
								}
								JOINT RightHandMiddle1
								{
									OFFSET -11.335861 0.000000 0.000000
									CHANNELS 3 Xrotation Yrotation Zrotation
									JOINT RightHandMiddle2
									{
										OFFSET -3.410492 0.000000 0.000000
										CHANNELS 3 Xrotation Yrotation Zrotation
										JOINT RightHandMiddle3
										{
											OFFSET -3.312172 0.000000 0.000000
											CHANNELS 3 Xrotation Yrotation Zrotation
											End Site
											{
												OFFSET 1.150200 3.080154 0.400270
											}
										}
									}
								}
								JOINT RightHandRing1
								{
									OFFSET -11.514786 -0.013176 -3.003090
									CHANNELS 3 Xrotation Yrotation Zrotation
									JOINT RightHandRing2
									{
										OFFSET -3.053307 0.000000 0.000000
										CHANNELS 3 Xrotation Yrotation Zrotation
										JOINT RightHandRing3
										{
											OFFSET -3.295807 0.000000 0.000000
											CHANNELS 3 Xrotation Yrotation Zrotation
											End Site
											{
												OFFSET 1.281006 3.013344 0.375733
											}
										}
									}
								}
								JOINT RightHandPinky1
								{
									OFFSET -10.518692 -0.960396 -5.730441
									CHANNELS 3 Xrotation Yrotation Zrotation
									JOINT RightHandPinky2
									{
										OFFSET -2.861649 0.000000 0.000000
										CHANNELS 3 Xrotation Yrotation Zrotation
										JOINT RightHandPinky3
										{
											OFFSET -2.863380 0.000000 0.000000
											CHANNELS 3 Xrotation Yrotation Zrotation
											End Site
											{
												OFFSET 0.843597 2.711159 0.369971
											}
										}
									}
								}
							}
							JOINT RSleeve
							{
								OFFSET -6.676277 -0.344902 -1.011730
								CHANNELS 3 Xrotation Yrotation Zrotation
								End Site
								{
									OFFSET 0.000000 14.885353 0.000000
								}
							}
						}
					}
				}
				JOINT Backpack
				{
					OFFSET 0.000000 -2.471497 36.677502
					CHANNELS 3 Xrotation Yrotation Zrotation
					End Site
					{
						OFFSET 0.000000 20.427315 0.000000
					}
				}
				JOINT Hood
				{
					OFFSET 0.000000 18.754097 -10.431000
					CHANNELS 3 Xrotation Yrotation Zrotation
					JOINT Hood1
					{
						OFFSET 0.000000 -5.011002 -7.685901
						CHANNELS 3 Xrotation Yrotation Zrotation
						End Site
						{
							OFFSET 0.000000 9.175140 0.000000
						}
					}
				}
				JOINT LHoodieString
				{
					OFFSET 5.250500 16.397697 3.089900
					CHANNELS 3 Xrotation Yrotation Zrotation
					JOINT LHoodieString1
					{
						OFFSET 0.257700 -6.364304 3.694600
						CHANNELS 3 Xrotation Yrotation Zrotation
						JOINT LHoodieString2
						{
							OFFSET 0.000000 -9.643799 2.679100
							CHANNELS 3 Xrotation Yrotation Zrotation
							End Site
							{
								OFFSET 0.000000 10.009018 0.000000
							}
						}
					}
				}
				JOINT RHoodieString
				{
					OFFSET -5.250500 16.397697 3.089900
					CHANNELS 3 Xrotation Yrotation Zrotation
					JOINT RHoodieString1
					{
						OFFSET -0.257700 -6.364304 3.694600
						CHANNELS 3 Xrotation Yrotation Zrotation
						JOINT RHoodieString2
						{
							OFFSET 0.000000 -9.643799 2.679100
							CHANNELS 3 Xrotation Yrotation Zrotation
							End Site
							{
								OFFSET 0.000000 10.009018 0.000000
							}
						}
					}
				}
			}
			JOINT LBackpack_Strap
			{
				OFFSET 15.223200 -7.719803 -6.610900
				CHANNELS 3 Xrotation Yrotation Zrotation
				End Site
				{
					OFFSET 0.000000 16.040596 0.000000
				}
			}
			JOINT RBackpack_Strap
			{
				OFFSET -15.223000 -7.719803 -6.610900
				CHANNELS 3 Xrotation Yrotation Zrotation
				End Site
				{
					OFFSET 0.000000 16.040596 0.000000
				}
			}
		}
	}
	JOINT BoyFacialAnim_Joint
	{
		OFFSET 1.000000 -82.208099 -1.550900
		CHANNELS 3 Xrotation Yrotation Zrotation
		End Site
		{
			OFFSET 0.000000 30.012791 0.000000
		}
	}
}
MOTION
Frames: 5
Frame Time: 0.033333
148.348694 73.814117 1.497882 3.741774 -36.465868 -347.986062 0.000001 0.000002 0.000000 -15.219502 -12.207699 11.000207 30.668909 21.167967 3.626612 -9.636913 1.459603 -15.040935 0.000000 0.000000 0.000001 0.000000 0.000000 0.000001 0.000001 -0.000000 0.000001 -36.404580 -6.920824 -14.128872 65.529197 -37.643515 -1.730337 -24.020336 -3.149382 13.639244 0.000000 -0.000000 0.000000 0.000000 -0.000000 0.000000 -0.000002 -0.000000 0.000000 3.165927 0.629404 2.044538 6.289898 1.444530 5.015433 6.289899 1.444534 5.015435 -7.104215 -29.118589 -1.276190 -10.633226 -37.532043 11.172209 0.000001 -0.000001 0.000001 0.000001 -0.000001 0.000001 0.000001 -0.000001 0.000001 3.322990 2.177882 -12.492383 3.809868 -2.210408 -48.693307 48.265368 -66.478306 24.616478 7.049158 14.608596 -5.039252 19.240377 5.442931 -2.980827 1.913627 -2.422405 8.298348 -0.000001 0.000002 0.000004 0.927155 -5.078621 -19.060671 -0.906642 -0.248369 -27.561869 -0.000001 0.000000 -0.000002 -1.130148 0.791096 -20.503912 -1.098396 -2.183703 -29.094458 0.000001 -0.000001 0.000004 0.175371 4.641425 -7.553916 -1.376793 -3.714621 -54.878852 0.000000 -0.000000 0.000001 -0.986841 5.954011 -8.951653 -0.769326 -5.975999 -50.447473 0.000001 0.000001 0.000002 -0.000000 0.000000 0.000001 4.235152 10.671676 3.457048 -3.748348 23.327237 44.385417 23.489024 34.978696 2.102893 -34.399227 -0.394480 -23.228312 1.091913 -6.287224 0.977504 5.288925 -9.716850 2.001648 0.000000 0.000003 0.000002 17.931880 7.192988 1.603024 -0.391868 -0.158574 27.365609 -0.000003 -0.000002 0.000003 -1.192520 -0.538238 6.557502 -0.373379 1.084670 21.271369 0.000001 0.000001 -0.000000 1.293332 -8.071864 3.446065 -0.426247 2.663560 22.501237 -0.000000 0.000004 0.000001 1.747939 -14.978829 5.887093 -1.188283 7.396331 33.354037 -0.000000 0.000001 0.000000 -0.000000 0.000004 -0.000001 0.000000 -0.000001 0.000000 0.000000 -0.000001 0.000000 0.000000 -0.000001 0.000000 0.000000 -0.000001 0.000000 0.000000 -0.000001 0.000001 -0.000001 -0.000003 0.000001 0.000000 -0.000001 0.000000 0.000000 -0.000001 0.000001 -0.000001 -0.000003 0.000001 -0.000001 -0.000003 0.000001 -0.000001 -0.000003 0.000001 0.000001 0.000002 0.000000 
151.601212 73.544914 -0.122422 3.265192 -33.653107 -347.493824 -0.000000 0.000002 -0.000001 -18.891438 -7.798097 12.370307 29.043098 10.786068 1.831266 -7.662168 0.918532 -20.101838 -0.000000 -0.000000 -0.000000 -0.000000 -0.000000 -0.000000 0.000000 -0.000002 0.000000 -38.582434 -5.644824 -12.614741 64.464937 -34.637221 -3.859417 -27.119331 -2.092980 9.229968 0.000000 0.000001 -0.000001 0.000000 0.000001 -0.000001 -0.000000 -0.000003 -0.000002 3.143764 0.338405 1.906906 6.262488 0.898238 4.803256 6.262491 0.898217 4.803264 -7.106923 -29.748541 -2.165371 -9.434812 -38.297595 13.478391 0.000001 0.000000 -0.000001 0.000001 0.000000 -0.000001 0.000001 0.000000 -0.000001 3.478062 1.573059 -13.505828 5.235874 1.037268 -47.979405 43.312221 -62.673037 17.378790 9.508182 16.769118 -9.690164 11.740895 6.609453 0.883016 1.547392 -1.749258 5.779588 -0.000000 -0.000001 -0.000001 1.291413 -3.665096 -14.173890 -0.520055 0.096775 -23.669257 -0.000001 0.000000 -0.000002 -0.667205 1.307730 -15.264450 -0.981580 -2.103787 -28.080878 0.000001 -0.000000 0.000000 0.304766 5.348628 -4.210266 -1.472943 -3.713326 -55.489884 -0.000000 -0.000001 0.000001 -0.980315 6.124755 -8.324647 -0.805119 -5.958246 -50.389441 0.000000 0.000000 -0.000000 -0.000000 0.000001 0.000003 4.258914 10.816491 3.666901 -2.133957 23.183045 42.209459 28.483762 32.757017 1.117143 -25.475327 -0.541624 -20.135963 -0.398742 -7.251673 -0.036133 5.770078 -9.055403 2.340565 0.000000 0.000001 0.000000 17.936893 9.181970 3.869932 -0.499470 -0.068173 28.614784 -0.000003 0.000002 0.000000 -1.294408 -0.797927 8.192493 -0.417353 1.113256 21.699719 0.000001 -0.000002 -0.000001 1.456159 -7.283337 7.898981 -0.414146 2.788415 23.962638 -0.000000 0.000001 0.000002 1.483093 -15.305583 5.410393 -1.157954 7.400624 33.279902 -0.000001 -0.000000 0.000002 -0.000001 -0.000001 0.000001 -0.000001 0.000005 -0.000002 -0.000001 0.000005 -0.000002 -0.000001 0.000005 -0.000002 -0.000001 0.000005 -0.000002 -0.000001 0.000005 -0.000003 -0.000001 -0.000000 -0.000001 -0.000001 0.000005 -0.000002 -0.000001 0.000005 -0.000003 -0.000001 -0.000000 -0.000001 -0.000000 -0.000001 0.000002 -0.000000 -0.000001 0.000002 -0.000000 0.000002 -0.000001 
153.774338 73.542404 -0.761479 2.712456 -31.660966 -346.920771 -0.000000 0.000000 -0.000001 -20.256523 -3.080198 12.832049 25.946497 3.010218 0.436004 -5.248048 0.697739 -22.463835 0.000000 -0.000000 0.000000 0.000000 -0.000000 0.000000 -0.000000 -0.000001 -0.000001 -39.462938 -4.957029 -13.322626 63.661775 -29.841657 -5.339022 -29.175310 -1.968492 8.114797 -0.000000 -0.000001 -0.000001 -0.000000 -0.000001 -0.000001 -0.000004 0.000003 -0.000001 3.180722 0.127832 1.748823 6.348947 0.490748 4.530200 6.348956 0.490748 4.530205 -7.228342 -30.707366 -3.824546 -9.095029 -39.114820 13.240588 0.000001 0.000000 -0.000000 0.000001 0.000000 -0.000000 0.000001 0.000000 -0.000000 3.704387 1.227655 -14.864751 6.208266 3.880981 -47.651283 38.606408 -57.524960 9.640893 12.599308 19.828200 -14.015071 7.414174 5.200162 3.215141 1.136473 -1.372032 4.768751 -0.000002 -0.000001 -0.000000 1.010623 -2.967172 -12.663172 -0.342672 0.280671 -21.727421 -0.000000 -0.000001 -0.000002 -0.550627 1.125711 -13.231570 -0.887404 -2.037715 -27.262715 0.000001 0.000000 -0.000003 0.253073 4.255519 -3.881453 -1.572527 -3.776551 -57.419973 0.000002 0.000001 -0.000002 -1.001365 5.905169 -8.366535 -0.814444 -5.968606 -50.953969 -0.000003 0.000001 -0.000005 0.000000 0.000000 -0.000000 4.275548 10.999865 3.870777 -0.354862 21.789449 40.698659 33.164865 31.533648 0.981391 -15.904538 -0.877951 -16.002635 -2.611176 -8.704283 -1.673423 6.672904 -8.580037 3.271879 0.000000 -0.000000 -0.000002 17.850010 11.015563 5.880833 -0.657073 0.050107 30.319083 0.000001 -0.000000 0.000005 -1.409307 -0.997452 10.038256 -0.492021 1.164690 22.473597 0.000004 -0.000003 0.000001 1.570892 -6.441995 12.433034 -0.406919 2.927259 25.574692 0.000001 0.000001 0.000001 1.499486 -15.330103 5.998046 -1.131324 7.400378 33.170264 0.000003 -0.000001 -0.000002 0.000001 -0.000000 0.000001 0.000001 0.000001 -0.000000 0.000001 0.000001 -0.000000 0.000001 0.000001 -0.000000 0.000001 0.000001 -0.000000 0.000001 0.000001 -0.000000 0.000001 -0.000002 0.000000 0.000001 0.000001 -0.000000 0.000001 0.000001 -0.000000 0.000001 -0.000002 0.000000 -0.000001 0.000003 -0.000003 -0.000001 0.000003 -0.000003 -0.000000 0.000000 -0.000001 
155.505219 73.978645 -0.842854 2.095214 -30.236192 -346.367663 0.000000 -0.000001 0.000000 -19.675576 1.257049 12.413369 21.491062 -1.690198 -0.636627 -2.950281 0.329920 -23.813875 -0.000000 -0.000000 -0.000000 -0.000000 -0.000000 0.000000 0.000001 0.000002 -0.000001 -39.711919 -4.915481 -16.190887 62.528135 -22.880459 -5.989914 -28.754543 -2.032688 8.265621 -0.000000 0.000000 0.000001 -0.000000 0.000000 0.000001 -0.000001 -0.000001 0.000001 3.256957 -0.016215 1.577987 6.509934 0.203360 4.214749 6.509932 0.203366 4.214739 -7.432298 -31.550611 -5.030059 -9.324882 -39.517279 12.321376 -0.000000 0.000000 0.000000 -0.000000 0.000000 0.000000 -0.000000 0.000000 0.000000 3.901180 1.806534 -15.904396 8.710269 7.429084 -49.244260 35.322412 -54.272393 5.058323 14.039785 18.277928 -16.107350 2.721979 2.607194 5.561774 0.590021 -0.906818 3.616837 -0.000000 -0.000002 -0.000000 0.486941 -2.438738 -12.950662 -0.278805 0.359607 -20.934070 0.000000 0.000002 -0.000003 -0.502755 1.041331 -12.434790 -0.853780 -2.016876 -27.000083 -0.000000 -0.000000 0.000000 0.190201 3.012355 -3.848382 -1.649187 -3.826442 -58.985814 -0.000000 0.000002 -0.000005 -1.013690 5.797732 -8.134579 -0.818256 -5.982964 -51.579721 0.000001 0.000003 -0.000003 -0.000000 0.000000 -0.000002 4.284354 11.203996 4.063300 1.264807 19.639280 39.860219 37.220651 31.083255 1.666664 -9.352202 -1.321675 -11.362019 -0.284807 -6.455564 -0.034797 5.103619 -8.613756 1.345591 -0.000001 0.000001 -0.000000 18.617584 11.159856 4.796879 -0.710977 0.095466 30.971705 -0.000000 0.000001 0.000004 -1.255164 -1.325311 8.540651 -0.516244 1.178490 22.691651 0.000005 0.000002 0.000002 1.414652 -7.361773 11.949751 -0.402329 2.934465 25.680444 0.000001 0.000001 -0.000003 0.808555 -16.181275 4.960725 -1.114390 7.378753 32.860908 -0.000004 0.000000 0.000000 0.000000 0.000001 -0.000001 0.000000 0.000004 -0.000001 0.000000 0.000004 -0.000001 0.000000 0.000004 -0.000001 0.000000 0.000004 -0.000001 0.000000 0.000004 -0.000001 -0.000000 0.000000 -0.000002 0.000000 0.000004 -0.000001 0.000000 0.000004 -0.000001 -0.000000 0.000000 -0.000002 0.000001 -0.000000 0.000001 0.000001 -0.000000 0.000001 0.000000 -0.000001 0.000000 
156.876862 74.390244 -0.812385 1.423046 -29.134196 -345.914548 -0.000001 0.000002 -0.000000 -20.381956 3.839475 10.994756 20.899735 -4.970868 -1.273441 -1.870772 0.587722 -21.597868 0.000000 0.000002 -0.000000 0.000000 0.000002 0.000000 0.000000 0.000000 0.000002 -40.023655 -5.374802 -19.082003 61.287431 -15.749351 -6.467238 -26.905949 -1.831513 7.305104 -0.000000 -0.000001 0.000000 -0.000000 -0.000001 0.000000 -0.000000 0.000002 0.000000 3.353277 -0.112243 1.379930 6.707796 0.018383 3.877957 6.707809 0.018378 3.877965 -7.149877 -32.029872 -5.042551 -9.516474 -39.520448 12.568288 -0.000000 0.000000 0.000000 -0.000000 0.000000 0.000000 -0.000000 0.000000 0.000000 4.010804 2.417942 -16.417936 13.428371 12.012168 -52.297929 34.856914 -54.507980 4.750622 14.246703 17.811644 -15.670855 -2.869908 0.517398 8.272534 0.117028 -0.410226 2.091079 -0.000003 -0.000001 -0.000001 0.342611 -1.999498 -11.101972 -0.201208 0.452390 -20.000935 -0.000002 0.000001 -0.000003 -0.369087 1.066047 -10.700512 -0.756645 -1.943788 -26.126338 -0.000002 0.000000 -0.000003 0.214102 1.977508 -2.618708 -1.690134 -3.825664 -59.257683 0.000002 -0.000002 -0.000001 -1.058650 5.291954 -7.906776 -0.827008 -5.986822 -51.953841 0.000000 0.000001 -0.000002 -0.000002 -0.000000 0.000002 4.285066 11.410846 4.238925 2.539581 17.250920 39.572805 40.399954 31.178154 3.022764 -4.128482 -1.777182 -6.744781 2.011793 -2.741282 1.916627 3.118191 -8.785362 -1.042853 -0.000002 0.000000 -0.000000 19.158354 11.201938 4.294358 -0.691157 0.091546 30.884937 0.000001 0.000002 0.000004 -1.158387 -1.481429 7.462933 -0.485624 1.151148 22.323964 0.000004 0.000001 0.000002 1.338838 -7.640710 12.356681 -0.398344 2.883998 25.141192 -0.000001 0.000001 -0.000003 1.341666 -15.530797 6.227193 -1.097503 7.350254 32.470210 -0.000001 0.000001 -0.000001 -0.000001 -0.000001 -0.000000 -0.000001 0.000000 -0.000001 -0.000001 0.000000 -0.000001 -0.000001 0.000000 -0.000001 -0.000001 0.000000 -0.000001 -0.000001 0.000000 0.000001 -0.000001 0.000002 0.000003 -0.000001 0.000000 -0.000001 -0.000001 0.000000 0.000001 -0.000001 0.000002 0.000003 0.000002 -0.000001 0.000001 0.000002 -0.000001 0.000001 -0.000001 0.000002 -0.000000 
